<svg width="249" height="304" viewBox="0 0 249 304" fill="none" xmlns="http://www.w3.org/2000/svg">
<path fill-rule="evenodd" clip-rule="evenodd" d="M248.507 70.3731L178.61 0.439941L162.478 72.1547L177.225 91.0202L248.507 70.3731Z" fill="#C6FDCC"/>
<path fill-rule="evenodd" clip-rule="evenodd" d="M-0.000289917 70.3731L69.8971 0.439941L86.0293 72.1547L71.2819 91.0202L-0.000289917 70.3731Z" fill="#5CDA48"/>
<path fill-rule="evenodd" clip-rule="evenodd" d="M-0.000282288 233.137L69.8971 303.07L86.0293 231.355L71.2819 212.49L-0.000282288 233.137Z" fill="#3BEA62"/>
<path fill-rule="evenodd" clip-rule="evenodd" d="M248.507 233.137L178.61 303.07L162.478 231.355L177.225 212.49L248.507 233.137Z" fill="#48EA58"/>
<path fill-rule="evenodd" clip-rule="evenodd" d="M179.38 0.439941H69.0557L88.9287 84.8895H159.936L179.38 0.439941Z" fill="#69EA76"/>
<path fill-rule="evenodd" clip-rule="evenodd" d="M179.38 303.07H69.0557L88.9287 218.62H159.936L179.38 303.07Z" fill="#4BC121"/>
<path fill-rule="evenodd" clip-rule="evenodd" d="M0 69.9683L0 233.274L99.0547 203.858L99.0547 98.7493L0 69.9683Z" fill="#7DFB91"/>
<path fill-rule="evenodd" clip-rule="evenodd" d="M248.507 69.9683V233.274L149.452 203.858V98.7493L248.507 69.9683Z" fill="#57FC7B"/>
<path fill-rule="evenodd" clip-rule="evenodd" d="M53.7373 87.9567L78.8792 57.6426H168.306L194.697 91.1494V214.726L169.414 245.601H78.7898L53.7373 215.091V87.9567Z" fill="#A1FF89"/>
</svg>
