<svg width="358" height="289" viewBox="0 0 358 289" fill="none" xmlns="http://www.w3.org/2000/svg">
<path fill-rule="evenodd" clip-rule="evenodd" d="M119.82 0.427246H118.64L119.82 3.04084V0.427246ZM0.797287 81.794H114.49L79.3555 3.96704L0.797287 81.794Z" fill="#DA4848"/>
<path fill-rule="evenodd" clip-rule="evenodd" d="M279.393 5.57666H173.32L241.955 81.7936H245.117L279.393 5.57666Z" fill="#FDC6C6"/>
<path fill-rule="evenodd" clip-rule="evenodd" d="M243.712 81.7939L176.41 5.57666L109.107 81.7939H243.712Z" fill="#FF8989"/>
<path fill-rule="evenodd" clip-rule="evenodd" d="M180.723 288.816H187.907L357.237 84.4476V81.7939H246.654L180.723 288.816Z" fill="#FB7D7D"/>
<path fill-rule="evenodd" clip-rule="evenodd" d="M248.999 81.7939V97.9121L182.806 288.816H174.264L110.335 81.7939H248.999Z" fill="#EA4848"/>
<path fill-rule="evenodd" clip-rule="evenodd" d="M162.645 288.816H177.31L111.38 81.7939H0.796875V93.4771L162.645 288.816Z" fill="#EA3B3B"/>
<path fill-rule="evenodd" clip-rule="evenodd" d="M243.875 81.7939H357.236L278.906 6.17041L243.875 81.7939Z" fill="#FC5757"/>
<path fill-rule="evenodd" clip-rule="evenodd" d="M73.7617 9.37331L77.6183 5.57666H178.127L109.492 81.7936H106.33L73.7617 9.37331Z" fill="#EA6969"/>
</svg>
