<svg width="196" height="303" viewBox="0 0 196 303" fill="none" xmlns="http://www.w3.org/2000/svg">
<path fill-rule="evenodd" clip-rule="evenodd" d="M93.2502 0.439941L76.2476 16.1255L84.9073 47.0667H108.831L118.971 17.1599L102.629 0.439941H93.2502Z" fill="#7B69EA"/>
<path fill-rule="evenodd" clip-rule="evenodd" d="M86.406 41.5649H110.829L156.435 200.559L129.226 253.35H67.3873L38.7832 198.453L86.406 41.5649ZM150.751 288.972V289.022H150.853L150.751 288.972Z" fill="#8995FF"/>
<path fill-rule="evenodd" clip-rule="evenodd" d="M118.573 16.9375L109.636 42.8435L152.311 188.556L190.207 217.797C192.214 210.308 193.638 202.492 194.412 194.431C194.474 193.786 194.532 193.139 194.585 192.491C194.918 188.457 195.089 184.363 195.089 180.221C195.089 175.049 194.823 169.955 194.307 164.956C191.935 141.99 184.281 121.055 172.894 104.059C159.78 77.313 144.352 51.4124 130.411 32.1212C126.303 26.437 122.325 21.3266 118.573 16.9375Z" fill="#C7C6FD"/>
<path fill-rule="evenodd" clip-rule="evenodd" d="M76.8505 16.9375L85.7871 42.8435L43.1124 188.556L5.21667 217.797C3.20911 210.308 1.78525 202.492 1.01147 194.431C0.949554 193.786 0.891815 193.139 0.838257 192.491C0.504913 188.457 0.334137 184.363 0.334137 180.221C0.334137 175.049 0.60025 169.955 1.11655 164.956C3.48872 141.99 11.1422 121.055 22.5294 104.059C35.643 77.313 51.0718 51.4124 65.0124 32.1212C69.1201 26.437 73.0985 21.3266 76.8505 16.9375Z" fill="#8F7DFB"/>
<path fill-rule="evenodd" clip-rule="evenodd" d="M42.1567 281.752L69.9843 247.267L42.6339 187.11L1.97109 207.56C7.06263 238.275 21.7722 264.701 42.1567 281.752Z" fill="#493BEA"/>
<path fill-rule="evenodd" clip-rule="evenodd" d="M153.266 283.291L125.438 248.806L152.789 188.649L193.452 209.099C188.36 239.814 173.651 266.24 153.266 283.291Z" fill="#6E57FC"/>
<path fill-rule="evenodd" clip-rule="evenodd" d="M153.397 282.439L128.542 245.08L96.5235 249.435L95.3632 294.545C115.939 296.497 135.914 291.959 153.397 282.439Z" fill="#4B48EA"/>
<path fill-rule="evenodd" clip-rule="evenodd" d="M41.4292 281.162L66.3623 244.558L97.2146 250.005L97.2492 295.256C77.3082 296.517 58.1037 291.294 41.4292 281.162Z" fill="#2421C1"/>
</svg>
