<svg width="248" height="317" viewBox="0 0 248 317" fill="none" xmlns="http://www.w3.org/2000/svg">
<path fill-rule="evenodd" clip-rule="evenodd" d="M247.171 276.516V25.7476H246.19L181.84 74.196V220.832L247.171 276.516Z" fill="#F8A04E"/>
<path fill-rule="evenodd" clip-rule="evenodd" d="M20.3115 23.7595L20.3115 274.528H21.293L85.6433 226.08L85.6433 79.4432L20.3115 23.7595Z" fill="#FBC17D"/>
<path fill-rule="evenodd" clip-rule="evenodd" d="M226.327 1.74707L51.7695 1.74707L51.7685 2.89603L85.4316 79.2167L187.498 79.2167L226.327 1.74707Z" fill="#EAB669"/>
<path fill-rule="evenodd" clip-rule="evenodd" d="M42.5919 294.771L223.158 294.771L223.159 293.749L188.327 225.858L82.7477 225.858L42.5919 294.771Z" fill="#C18121"/>
<path d="M85.812 224.308L42.4592 294.501L20.4829 274.693L85.812 224.308Z" fill="#F0C044"/>
<path fill-rule="evenodd" clip-rule="evenodd" d="M247.171 276.109L187.361 225.054L223.443 294.77L241.662 280.748L247.171 276.109Z" fill="#E19F3C"/>
<path fill-rule="evenodd" clip-rule="evenodd" d="M20.3115 25.4555L85.6734 80.3984L53.3314 0.557617L20.3115 23.7307V25.4555Z" fill="#DA8E48"/>
<path fill-rule="evenodd" clip-rule="evenodd" d="M224.174 1.74707L185.173 79.7233L247.171 32.5196V25.3681L225.976 1.74707H224.174Z" fill="#FCDAC6"/>
<rect x="74.4399" y="67.2783" width="122.413" height="173.874" fill="#FFD789"/>
</svg>
