<svg width="73" height="73" viewBox="0 0 73 73" fill="none" xmlns="http://www.w3.org/2000/svg">
<path d="M53.9017 0.0474736C50.5796 0.560755 47.8849 1.64435 45.5323 3.44083C44.962 3.86857 40.9698 7.76095 36.6497 12.0811C30.7185 18.0266 28.9077 19.9086 29.2356 19.8231C29.478 19.766 30.7185 19.7233 32.0159 19.7233C34.6536 19.7375 36.2362 19.9656 38.4034 20.6643L39.7579 21.092L45.3327 15.5315C50.5511 10.3416 50.9788 9.9424 51.9769 9.45763C55.413 7.78947 59.1628 8.40255 61.829 11.0688C64.1245 13.3643 64.9229 16.5723 63.9677 19.6377C63.3688 21.5625 63.1407 21.8049 54.2724 30.659C46.2737 38.6434 45.8745 39.0141 44.8337 39.5274C44.0923 39.8838 43.3081 40.1262 42.3671 40.283C41.0981 40.4969 40.8985 40.4969 39.6296 40.283C37.9044 39.9979 36.6212 39.3705 35.1241 38.1301C33.7839 36.9895 32.9569 36.6758 31.5882 36.7756C30.2622 36.8754 29.5065 37.3317 27.7386 39.0996L26.27 40.5682L26.9687 41.6233C29.421 45.316 33.5985 47.9395 38.2751 48.7379C39.7009 48.9803 42.7235 48.9518 44.1778 48.6666C45.6036 48.3957 47.5284 47.7399 48.7688 47.1125C50.936 46.0289 51.5634 45.4586 60.2179 36.8326C64.8659 32.1988 69.0292 27.9358 69.4712 27.3654C70.9683 25.3693 72.1659 22.6889 72.6649 20.1367C72.779 19.5664 72.8645 18.2547 72.8645 17.0713C72.8645 14.8186 72.6935 13.7207 72.0661 11.7531C70.2126 6.06427 65.4362 1.7299 59.5335 0.375403C58.3501 0.104505 54.8712 -0.0951045 53.9017 0.0474736Z" fill="white"/>
<path d="M29.2356 24.1431C26.8261 24.5138 24.4308 25.4548 22.2636 26.8664C21.0231 27.6791 4.64092 43.9187 3.37197 45.5869C1.94619 47.4832 0.805566 49.9925 0.278027 52.4306C-0.0926758 54.113 -0.0926758 57.5919 0.278027 59.2744C1.73232 66.0183 6.87939 71.1654 13.6233 72.6197C15.3058 72.9904 18.7847 72.9904 20.4671 72.6197C22.9052 72.0921 25.4145 70.9515 27.3108 69.5115C27.8954 69.0695 31.9161 65.1628 36.222 60.8427C44.0353 53.0009 44.0638 52.9724 43.4222 53.0865C42.3243 53.2576 38.7171 53.172 37.3626 52.9439C36.664 52.8156 35.4235 52.5162 34.6108 52.2595L33.1423 51.8033L27.5532 57.3781C22.3206 62.5822 21.8929 62.9814 20.8948 63.4662C17.4587 65.1343 13.7089 64.5212 11.0427 61.855C8.74717 59.5595 7.94873 56.3515 8.904 53.2861C9.50283 51.3613 9.7167 51.1189 18.6706 42.2078C26.7833 34.1236 27.1397 33.7814 28.1093 33.3537C31.4456 31.8423 35.0101 32.3414 37.7048 34.6796C38.9024 35.7347 39.5868 36.0626 40.7132 36.1339C42.2815 36.248 43.0372 35.863 44.9478 33.9953C45.8317 33.1255 46.5589 32.3699 46.5589 32.3128C46.5589 32.2558 46.231 31.714 45.8175 31.1009C42.3813 25.9681 35.6802 23.1451 29.2356 24.1431Z" fill="white"/>
</svg>
