<svg width="40" height="43" viewBox="0 0 40 43" fill="none" xmlns="http://www.w3.org/2000/svg">
<path d="M32.5195 29.4844C30.9749 29.4844 29.5494 30.0264 28.4329 30.9315L17.2028 22.807C17.3909 21.7749 17.3909 20.7173 17.2028 19.6852L28.4329 11.5607C29.5494 12.4658 30.9749 13.0078 32.5195 13.0078C36.1075 13.0078 39.0234 10.0919 39.0234 6.50391C39.0234 2.91592 36.1075 0 32.5195 0C28.9315 0 26.0156 2.91592 26.0156 6.50391C26.0156 7.13262 26.1023 7.73423 26.2704 8.30874L15.604 16.0321C14.0213 13.9346 11.5065 12.5742 8.67188 12.5742C3.88066 12.5742 0 16.4549 0 21.2461C0 26.0373 3.88066 29.918 8.67188 29.918C11.5065 29.918 14.0213 28.5576 15.604 26.4601L26.2704 34.1834C26.1023 34.758 26.0156 35.365 26.0156 35.9883C26.0156 39.5763 28.9315 42.4922 32.5195 42.4922C36.1075 42.4922 39.0234 39.5763 39.0234 35.9883C39.0234 32.4003 36.1075 29.4844 32.5195 29.4844ZM32.5195 3.68555C34.075 3.68555 35.3379 4.94839 35.3379 6.50391C35.3379 8.05942 34.075 9.32227 32.5195 9.32227C30.964 9.32227 29.7012 8.05942 29.7012 6.50391C29.7012 4.94839 30.964 3.68555 32.5195 3.68555ZM8.67188 26.0156C6.04321 26.0156 3.90234 23.8748 3.90234 21.2461C3.90234 18.6174 6.04321 16.4766 8.67188 16.4766C11.3005 16.4766 13.4414 18.6174 13.4414 21.2461C13.4414 23.8748 11.3005 26.0156 8.67188 26.0156ZM32.5195 38.8066C30.964 38.8066 29.7012 37.5438 29.7012 35.9883C29.7012 34.4328 30.964 33.1699 32.5195 33.1699C34.075 33.1699 35.3379 34.4328 35.3379 35.9883C35.3379 37.5438 34.075 38.8066 32.5195 38.8066Z" fill="#85B6FF"/>
</svg>
