<svg width="359" height="359" viewBox="0 0 359 359" fill="none" xmlns="http://www.w3.org/2000/svg">
<path fill-rule="evenodd" clip-rule="evenodd" d="M203.165 179.154L179.943 203.668L180.208 203.47L260.521 256.745L202.982 179.43L203.165 179.154Z" fill="#088B8B"/>
<path fill-rule="evenodd" clip-rule="evenodd" d="M177.712 156.721L202.225 179.943L202.027 179.678L255.302 99.3653L177.988 156.904L177.712 156.721Z" fill="#BD7BBA"/>
<path fill-rule="evenodd" clip-rule="evenodd" d="M155.251 181.089L178.473 156.576L178.207 156.774L97.895 103.499L155.434 180.813L155.251 181.089Z" fill="#F89B2D"/>
<path fill-rule="evenodd" clip-rule="evenodd" d="M180.3 202.951L155.787 179.728L155.985 179.994L102.709 260.306L180.024 202.767L180.3 202.951Z" fill="#00FF5E"/>
<path fill-rule="evenodd" clip-rule="evenodd" d="M206.363 153L179.681 0L153 153H206.363Z" fill="#FF5252"/>
<path fill-rule="evenodd" clip-rule="evenodd" d="M153 153L0 179.681L153 206.363V153Z" fill="#FFD93D"/>
<path fill-rule="evenodd" clip-rule="evenodd" d="M153 206L179.681 359L206.363 206H153Z" fill="#6BCB77"/>
<path fill-rule="evenodd" clip-rule="evenodd" d="M206 206.363L359 179.681L206 153V206.363Z" fill="#4D96FF"/>
<rect x="153" y="153" width="53" height="53" fill="white"/>
<path d="M172.78 163.707L186.103 163.557L195.666 172.906L195.866 186.278L186.587 195.839L173.264 195.989L163.701 186.64L163.501 173.268L172.78 163.707Z" fill="#89FFF6"/>
<path fill-rule="evenodd" clip-rule="evenodd" d="M190.547 153.72H168.82V153.885L173.018 164.688H185.723L190.547 153.72Z" fill="#69EADC"/>
<path fill-rule="evenodd" clip-rule="evenodd" d="M205.911 169.083L190.547 153.72L190.431 153.837L185.76 164.444L194.743 173.428L205.911 169.083Z" fill="#C6FDFD"/>
<path fill-rule="evenodd" clip-rule="evenodd" d="M205.943 190.637V168.91H205.778L194.975 173.107V185.812L205.943 190.637Z" fill="#57DAFC"/>
<path fill-rule="evenodd" clip-rule="evenodd" d="M153.225 190.637L168.588 206L168.705 205.883L173.376 195.276L164.392 186.293L153.225 190.637Z" fill="#3BA3EA"/>
<path fill-rule="evenodd" clip-rule="evenodd" d="M190.547 206L205.91 190.637L205.794 190.52L195.187 185.849L186.203 194.833L190.547 206Z" fill="#48EADA"/>
<path fill-rule="evenodd" clip-rule="evenodd" d="M168.45 206H190.547V205.835L186.278 195.032H173.356L168.45 206Z" fill="#218BC1"/>
<path fill-rule="evenodd" clip-rule="evenodd" d="M153 168.217L153.235 190.916L153.405 190.915L164.514 186.414L164.376 173.14L153 168.217Z" fill="#7DDDFB"/>
<path fill-rule="evenodd" clip-rule="evenodd" d="M168.593 153L153.225 168.368L153.345 168.489L164.202 173.407L173.188 164.42L168.593 153Z" fill="#48ABDA"/>
</svg>
